# xmcd CD database file
#
# Track frame offsets:
#	150
#	14990
#	28119
#	39590
#	51051
#	66192
#	80100
#	94335
#	107882
#	121845
#	137105
#	151984
#	166704
#	177682
#	190506
#	202517
#	215091
#	227028
#	239592
#	252485
#
# Disc length: 3552 seconds
#
# Revision: 3
# Processed by: cddbd v1.5PL3 Copyright (c) Steve Scherf et al.
# Submitted via: Feurio! 1.67 - http://www.feurio.com
#
DISCID=200dde14
DTITLE=Django Reinhardt - Django Reinhardt CD 1
DYEAR=1900
DGENRE=jazz
TTITLE0=Nuages
TTITLE1=Ain't Misbehavin'
TTITLE2=Dinah
TTITLE3=Tiger Rag
TTITLE4=Liebestraum No. 3
TTITLE5=It don't mean a thing
TTITLE6=Embraceable you
TTITLE7=Honeysuckle Rose
TTITLE8=The sheik of Araby
TTITLE9=I can't give you
TTITLE10=Tea for two
TTITLE11=Daphne
TTITLE12=Swing Guitars
TTITLE13=Miss Annabelle Lee
TTITLE14=Rhythme Futur
TTITLE15=Stockholm
TTITLE16=Stompin' at Decca
TTITLE17=Night and Day
TTITLE18=Swinging with Django
TTITLE19=I'se A - Muggin
EXTD=All songs performed with Stephane Grappelli
EXTT0=
EXTT1=
EXTT2=
EXTT3=
EXTT4=
EXTT5=
EXTT6=
EXTT7=
EXTT8=
EXTT9=
EXTT10=
EXTT11=
EXTT12=
EXTT13=
EXTT14=
EXTT15=
EXTT16=
EXTT17=
EXTT18=
EXTT19=
PLAYORDER=
